<svg width="61" height="61" viewBox="0 0 61 61" fill="none" xmlns="http://www.w3.org/2000/svg">
<path d="M57.1168 47.0702H4.6914C3.72153 47.0702 2.9353 47.8565 2.9353 48.8263V48.8269C2.9353 49.7968 3.72153 50.583 4.6914 50.583H57.1168C58.0866 50.583 58.8729 49.7968 58.8729 48.8269V48.8263C58.8729 47.8565 58.0866 47.0702 57.1168 47.0702Z" fill="#4D4C78"/>
<path d="M57.1168 47.0702H5.43774C5.43482 47.1083 5.43482 47.1463 5.43482 47.1844C5.43443 47.4152 5.47957 47.6439 5.56765 47.8573C5.65573 48.0707 5.78502 48.2646 5.94813 48.428C6.11124 48.5914 6.30496 48.721 6.51821 48.8094C6.73146 48.8979 6.96005 48.9434 7.19091 48.9434H58.867C58.8699 48.9024 58.8729 48.8644 58.8729 48.8263C58.8729 48.5957 58.8274 48.3674 58.7392 48.1543C58.6509 47.9412 58.5216 47.7476 58.3585 47.5846C58.1954 47.4215 58.0019 47.2922 57.7888 47.2039C57.5757 47.1157 57.3474 47.0702 57.1168 47.0702Z" fill="#323150"/>
<path d="M48.0526 12.0937L40.175 13.4827L46.0613 46.8651L53.9388 45.4761L48.0526 12.0937Z" fill="#67BAEB"/>
<path d="M16.4952 10.5258H7.84351V47.1858H16.4952V10.5258Z" fill="#67BAEB"/>
<path d="M39.3275 10.5258H30.6758V47.1858H39.3275V10.5258Z" fill="#F44533"/>
<path d="M30.6758 47.1844H39.3275V10.5258H37.8641V45.5219H30.6758V47.1844Z" fill="#DE3226"/>
<path d="M23.5957 13.0458H16.4952V47.185H23.5957V13.0458Z" fill="#F4C23F"/>
<path d="M21.7401 13.0458V40.681C21.7401 43.5756 19.3928 45.9258 16.4952 45.9258V47.1844H23.5957V13.0458H21.7401Z" fill="#F4A93F"/>
<path d="M30.6758 15.2995H23.5753V47.1861H30.6758V15.2995Z" fill="#C8C2E9"/>
<path d="M29.3148 15.2995V40.321C29.3148 43.4907 26.7451 46.0605 23.5753 46.0605V47.1844H30.6758V15.2995H29.3148Z" fill="#B9B1E0"/>
<path d="M16.4952 16.3063H7.84351V18.8553H16.4952V16.3063Z" fill="#4D4C78"/>
<path d="M16.4952 38.8575H7.84351V41.4065H16.4952V38.8575Z" fill="#4D4C78"/>
<path d="M20.7713 18.1268H18.9948V42.9215H20.7713V18.1268Z" fill="#F4A93F"/>
<path d="M28.7295 20.4244H25.5216C25.3664 20.4244 25.2175 20.3627 25.1077 20.2529C24.998 20.1432 24.9363 19.9943 24.9363 19.839C24.9363 19.6838 24.998 19.5349 25.1077 19.4251C25.2175 19.3153 25.3664 19.2536 25.5216 19.2536H28.7295C28.8847 19.2536 29.0336 19.3153 29.1434 19.4251C29.2531 19.5349 29.3148 19.6838 29.3148 19.839C29.3148 19.9943 29.2531 20.1432 29.1434 20.2529C29.0336 20.3627 28.8847 20.4244 28.7295 20.4244Z" fill="#4D4C78"/>
<path d="M28.7295 23.3893H25.5216C25.3664 23.3893 25.2175 23.3276 25.1077 23.2178C24.998 23.108 24.9363 22.9591 24.9363 22.8039C24.9363 22.6486 24.998 22.4998 25.1077 22.39C25.2175 22.2802 25.3664 22.2185 25.5216 22.2185H28.7295C28.8847 22.2185 29.0336 22.2802 29.1434 22.39C29.2531 22.4998 29.3148 22.6486 29.3148 22.8039C29.3148 22.9591 29.2531 23.108 29.1434 23.2178C29.0336 23.3276 28.8847 23.3893 28.7295 23.3893Z" fill="#4D4C78"/>
<path d="M28.7295 26.3512H25.5216C25.3664 26.3512 25.2175 26.2895 25.1077 26.1798C24.998 26.07 24.9363 25.9211 24.9363 25.7658C24.9363 25.6106 24.998 25.4617 25.1077 25.3519C25.2175 25.2421 25.3664 25.1805 25.5216 25.1805H28.7295C28.8847 25.1805 29.0336 25.2421 29.1434 25.3519C29.2531 25.4617 29.3148 25.6106 29.3148 25.7658C29.3148 25.9211 29.2531 26.07 29.1434 26.1798C29.0336 26.2895 28.8847 26.3512 28.7295 26.3512Z" fill="#4D4C78"/>
<path d="M28.1791 44.1229H26.0718C25.9166 44.1229 25.7677 44.0612 25.6579 43.9515C25.5481 43.8417 25.4865 43.6928 25.4865 43.5375C25.4865 43.3823 25.5481 43.2334 25.6579 43.1236C25.7677 43.0139 25.9166 42.9522 26.0718 42.9522H28.1791C28.3344 42.9522 28.4833 43.0139 28.593 43.1236C28.7028 43.2334 28.7645 43.3823 28.7645 43.5375C28.7645 43.6928 28.7028 43.8417 28.593 43.9515C28.4833 44.0612 28.3344 44.1229 28.1791 44.1229Z" fill="#4D4C78"/>
<path d="M33.4007 41.5795C33.2457 41.5787 33.0972 41.5168 32.9876 41.4072C32.878 41.2976 32.8161 41.1491 32.8153 40.9941V16.719C32.8153 16.5638 32.877 16.4149 32.9868 16.3051C33.0965 16.1953 33.2454 16.1336 33.4007 16.1336C33.5559 16.1336 33.7048 16.1953 33.8146 16.3051C33.9244 16.4149 33.986 16.5638 33.986 16.719V40.9941C33.986 41.071 33.9709 41.1471 33.9415 41.2181C33.9121 41.2892 33.8689 41.3537 33.8146 41.408C33.7602 41.4624 33.6957 41.5055 33.6247 41.5349C33.5537 41.5644 33.4775 41.5795 33.4007 41.5795Z" fill="#B11A31"/>
<path d="M36.5996 41.5795C36.4444 41.5795 36.2955 41.5178 36.1857 41.408C36.076 41.2983 36.0143 41.1494 36.0143 40.9941V16.719C36.0143 16.5638 36.076 16.4149 36.1857 16.3051C36.2955 16.1953 36.4444 16.1336 36.5996 16.1336C36.7549 16.1336 36.9038 16.1953 37.0136 16.3051C37.1233 16.4149 37.185 16.5638 37.185 16.719V40.9941C37.1842 41.1491 37.1223 41.2976 37.0127 41.4072C36.9031 41.5168 36.7547 41.5787 36.5996 41.5795Z" fill="#B11A31"/>
<path d="M53.1802 41.0117L45.3041 42.4078L45.509 43.561L53.3851 42.1649L53.1802 41.0117Z" fill="#4D4C78"/>
<path d="M48.6284 15.3619L40.7509 16.751L40.9541 17.9039L48.8317 16.5149L48.6284 15.3619Z" fill="#4D4C78"/>
<path d="M50.1363 23.8107L49.9314 22.6605L42.0553 24.0536L42.2602 25.2068L50.1363 23.8107Z" fill="#4D4C78"/>
<path d="M52.0884 34.8332L51.8835 33.68L44.0045 35.0761L44.2094 36.2293L52.0884 34.8332Z" fill="#4D4C78"/>
<path opacity="0.1" d="M13.9957 39.1678V10.5258H16.4952V47.1844H7.84351V45.32C11.2416 45.32 13.9957 42.5658 13.9957 39.1678Z" fill="#323150"/>
<path opacity="0.1" d="M48.0553 12.0566L46.0504 12.4136L50.6953 38.6615C51.2456 41.7639 49.1763 44.7258 46.0709 45.2732L45.8192 45.32L46.0856 46.8302L53.9646 45.4371L48.0553 12.0566Z" fill="#323150"/>
<path d="M9.74009 22.5961C9.74009 22.0724 9.31553 21.6478 8.7918 21.6478C8.26807 21.6478 7.84351 22.0724 7.84351 22.5961V36.0583C7.84351 36.5821 8.26807 37.0066 8.7918 37.0066C9.31553 37.0066 9.74009 36.5821 9.74009 36.0583V22.5961Z" fill="#83D0FB"/>
<g opacity="0.2">
<path d="M43.7334 20.9539C43.6321 20.3792 43.0841 19.9955 42.5094 20.0968C41.9347 20.1981 41.551 20.7461 41.6523 21.3208L44.254 36.0753C44.3553 36.65 44.9033 37.0337 45.478 36.9324C46.0526 36.8311 46.4364 36.2831 46.335 35.7084L43.7334 20.9539Z" fill="white"/>
<path d="M45.3099 36.9317C45.058 36.9313 44.8144 36.8422 44.6217 36.68C44.429 36.5179 44.2996 36.293 44.2562 36.0449L41.6455 21.2907C41.5961 21.0113 41.6596 20.7237 41.822 20.4911C41.9844 20.2584 42.2325 20.0997 42.5119 20.0497C42.792 20.0004 43.0804 20.0642 43.3136 20.2271C43.5468 20.3901 43.7058 20.6389 43.7558 20.919L46.3665 35.6732C46.4159 35.9526 46.3524 36.2402 46.19 36.4728C46.0276 36.7055 45.7795 36.8642 45.5001 36.9141C45.4374 36.9258 45.3737 36.9317 45.3099 36.9317ZM42.6992 20.0644C42.6383 20.0646 42.5775 20.0704 42.5177 20.0819C42.3832 20.1056 42.2547 20.1556 42.1396 20.2291C42.0244 20.3026 41.925 20.3981 41.8469 20.5102C41.7689 20.6222 41.7137 20.7486 41.6847 20.8821C41.6556 21.0155 41.6533 21.1534 41.6777 21.2878L44.2884 36.039C44.337 36.3105 44.4911 36.5517 44.7172 36.7097C44.9432 36.8677 45.2227 36.9296 45.4943 36.8819C45.6285 36.8583 45.7567 36.8084 45.8716 36.7351C45.9865 36.6618 46.0859 36.5665 46.1639 36.4548C46.2419 36.343 46.2971 36.217 46.3264 36.0839C46.3556 35.9507 46.3583 35.8132 46.3343 35.679L43.7236 20.9249C43.681 20.684 43.555 20.4658 43.3677 20.3085C43.1804 20.1512 42.9438 20.0648 42.6992 20.0644Z" fill="#231F20"/>
</g>
<path d="M9.74009 12.3551C9.74009 11.8314 9.31553 11.4068 8.7918 11.4068C8.26807 11.4068 7.84351 11.8314 7.84351 12.3551V14.379C7.84351 14.9027 8.26807 15.3273 8.7918 15.3273C9.31553 15.3273 9.74009 14.9027 9.74009 14.379V12.3551Z" fill="#83D0FB"/>
<path d="M17.9177 14.3454C17.9177 13.9526 17.5993 13.6341 17.2065 13.6341C16.8137 13.6341 16.4952 13.9526 16.4952 14.3454V30.0885C16.4952 30.4813 16.8137 30.7997 17.2065 30.7997C17.5993 30.7997 17.9177 30.4813 17.9177 30.0885V14.3454Z" fill="#FAD564"/>
<path d="M24.2573 28.2888H24.2543C23.8793 28.2888 23.5753 28.5928 23.5753 28.9678V37.3183C23.5753 37.6933 23.8793 37.9974 24.2543 37.9974H24.2573C24.6323 37.9974 24.9363 37.6933 24.9363 37.3183V28.9678C24.9363 28.5928 24.6323 28.2888 24.2573 28.2888Z" fill="#DFDAFD"/>
<path d="M26.5636 15.2995H24.1373C23.8269 15.2995 23.5753 15.5511 23.5753 15.8615V16.4096C23.5753 16.72 23.8269 16.9716 24.1373 16.9716H26.5636C26.874 16.9716 27.1256 16.72 27.1256 16.4096V15.8615C27.1256 15.5511 26.874 15.2995 26.5636 15.2995Z" fill="#DFDAFD"/>
<path d="M31.2465 15.2995H31.2436C30.93 15.2995 30.6758 15.5537 30.6758 15.8673V36.8339C30.6758 37.1475 30.93 37.4017 31.2436 37.4017H31.2465C31.5601 37.4017 31.8143 37.1475 31.8143 36.8339V15.8673C31.8143 15.5537 31.5601 15.2995 31.2465 15.2995Z" fill="#F46253"/>
</svg>
