<svg width="60" height="60" viewBox="0 0 60 60" fill="none" xmlns="http://www.w3.org/2000/svg">
<path fill-rule="evenodd" clip-rule="evenodd" d="M12.9091 30C12.9091 28.0946 13.2256 26.268 13.7904 24.5546L3.90433 17.0053C1.9776 20.9173 0.892059 25.3253 0.892059 30C0.892059 34.6706 1.97626 39.076 3.90033 42.9853L13.781 35.4213C13.2215 33.716 12.9091 31.896 12.9091 30Z" fill="#FBBC05"/>
<path fill-rule="evenodd" clip-rule="evenodd" d="M30.2671 12.6666C34.4063 12.6666 38.1449 14.1333 41.0824 16.5333L49.6279 7.99996C44.4205 3.46663 37.7443 0.666626 30.2671 0.666626C18.6586 0.666626 8.68177 7.30529 3.90433 17.0053L13.7903 24.5546C16.0682 17.64 22.5615 12.6666 30.2671 12.6666Z" fill="#EB4335"/>
<path fill-rule="evenodd" clip-rule="evenodd" d="M30.2671 47.3333C22.5615 47.3333 16.0682 42.36 13.7903 35.4453L3.90433 42.9933C8.68177 52.6946 18.6586 59.3333 30.2671 59.3333C37.4319 59.3333 44.2723 56.7893 49.4062 52.0226L40.0222 44.768C37.3745 46.436 34.0404 47.3333 30.2671 47.3333Z" fill="#34A853"/>
<path fill-rule="evenodd" clip-rule="evenodd" d="M58.3068 30C58.3068 28.2666 58.0398 26.4 57.6392 24.6666H30.2671V36H46.0227C45.235 39.864 43.0906 42.8346 40.0222 44.768L49.4062 52.0226C54.7992 47.0173 58.3068 39.5613 58.3068 30Z" fill="#4285F4"/>
</svg>
