<svg width="60" height="60" viewBox="0 0 60 60" fill="none" xmlns="http://www.w3.org/2000/svg">
<path d="M32.275 32.8233L29.9939 35.675L31.1345 37.1578L32.275 39.7817L36.8378 40.4656L40.7156 41.8333L45.6206 39.7806L47.7872 36.5867L48.4722 34.8767L46.0767 32.8211L39.3472 31.4544L36.8378 30.5422L32.275 32.8233Z" fill="#FDCE51"/>
<path d="M36.3378 20.4606L33.4167 18.0295L31.8317 17.0489L30.6806 16.17L28.3989 15.2572H25.6595L22.5794 16.17L20.1839 17.3106L15.8506 19.82L13.5695 23.6983L13.4995 27.0061L14.2539 30.6561L15.7056 36.0483L19.2728 38.6406L24.4056 40.8072L31.8795 37.9839L37.4411 37.525L38.4883 35.525L39.0711 31.4083L39.0061 28.4878L38.0933 23.6972L36.3378 20.4606Z" fill="#FED9DB"/>
<path d="M36.5122 40.6517L36.29 41.1061L35.755 41.4394L27.3422 44.7428L26.75 44.7311L26.3244 44.4083L26.1283 43.9083L19.1517 26.1467L19.0406 25.8655L19.155 25.4094L19.4556 25.1678L28.155 21.7517L28.7361 21.645L29.1922 22.1011L29.4872 22.5139L36.165 39.5211L36.3994 40.1172L36.5122 40.6517Z" fill="#100174"/>
<path d="M35.37 38.7417L35.1478 39.1267L34.6444 39.4239L26.8022 42.5039L26.2583 42.5183L25.8822 42.2683L25.7233 41.8639L20.0611 27.4444L19.9722 26.9817L20.1061 26.7311L20.3839 26.62L28.495 23.4356L28.9261 23.2689L29.315 23.3144L29.6828 24.0144L35.1033 37.82L35.2933 38.3039L35.37 38.7417Z" fill="#FED9DB"/>
<path d="M31.5755 42.5111C31.4592 42.5642 31.3342 42.5959 31.2067 42.6044C31.0873 42.5935 30.9734 42.5496 30.8776 42.4776C30.7818 42.4056 30.708 42.3083 30.6644 42.1967C30.6369 42.1235 30.6254 42.0452 30.6308 41.9672C30.6362 41.8891 30.6583 41.8132 30.6955 41.7444C30.7611 41.5917 30.7128 41.5522 31.0061 41.4111C31.1344 41.3715 31.2693 41.3585 31.4028 41.3728C31.4363 41.3738 31.4689 41.3844 31.4967 41.4033C31.64 41.5022 31.7544 41.5472 31.83 41.7367C31.8656 41.8037 31.8849 41.878 31.8866 41.9539C31.8882 42.0297 31.8721 42.1049 31.8394 42.1733C31.7722 42.3007 31.6828 42.4151 31.5755 42.5111Z" fill="#FD6769"/>
<path d="M22.1006 24.8483L22.0178 24.9444L21.9556 25.0917L21.9767 25.1444L22.1011 25.1567L22.2256 25.1694L22.3295 25.1283L22.5367 25.0472L26.3739 23.5405L26.4567 23.4467L26.4356 23.3911L26.4145 23.3355L26.2695 23.27L26.0411 23.2983L22.1006 24.8483Z" fill="#FD6769"/>
<path d="M32.7617 21.8406C34.455 21.6433 36.1583 21.4861 37.9106 21.6794C38.3939 21.735 38.8961 21.6444 39.3811 21.6794C39.5578 21.6922 39.5294 21.5578 39.3539 21.5456C37.6412 21.4213 35.9227 21.3976 34.2072 21.4744C33.7217 21.4967 33.2467 21.6411 32.7628 21.6794C32.5833 21.6933 32.5833 21.8544 32.7617 21.8406Z" fill="black"/>
<path d="M38.8056 24.4639C40.4989 24.2667 42.2022 24.1094 43.9539 24.3028C44.4372 24.3583 44.94 24.2678 45.425 24.3028C45.6017 24.3156 45.5734 24.1817 45.3978 24.1689C43.6851 24.0446 41.9666 24.021 40.2511 24.0983C39.7656 24.12 39.2906 24.265 38.8067 24.3028C38.6311 24.3167 38.6295 24.4778 38.8056 24.4639Z" fill="black"/>
<path d="M11.6595 32.905C13.3528 32.7078 15.0567 32.55 16.8083 32.7433C17.2917 32.7989 17.7945 32.7083 18.28 32.7433C18.4567 32.7561 18.4283 32.6222 18.2522 32.6094C16.5395 32.4854 14.821 32.4618 13.1056 32.5389C12.62 32.5611 12.1456 32.7055 11.6611 32.7433C11.485 32.7572 11.4833 32.9189 11.6611 32.905H11.6595Z" fill="black"/>
<path d="M29.9389 33.1589C29.9389 32.1189 29.9722 30.2811 30.4106 29.4128C30.9449 28.3502 31.7644 27.4573 32.7772 26.8338C33.79 26.2103 34.9562 25.8808 36.1456 25.8822C37.9122 25.8822 39.0511 26.6528 40.2117 27.8083C41.3811 28.9711 41.9239 28.6639 42.1378 31.8744C42.2145 33.0222 41.5178 34.5867 41.0511 35.6805C40.9202 35.9858 40.7039 36.2468 40.4283 36.4322C38.9956 37.4017 38.17 38.295 36.145 38.295C34.3228 38.295 33.2478 38.0172 32.0789 36.795C30.9722 35.6439 30.795 34.8711 29.9389 33.1589Z" fill="#94B7BD"/>
<path d="M40.385 36.485L42.3767 38.005L42.9461 38.6111L44.8395 40.1489L46.3245 41.26L46.9428 40.8889L45.8317 40.1467L43.2333 37.6972L41.6228 36.4389L40.385 35.5722V36.485Z" fill="#94B7BD"/>
<path d="M30.9517 32.9811C30.9517 32.1145 30.9794 30.5811 31.345 29.8567C31.7908 28.9706 32.4743 28.2259 33.319 27.706C34.1637 27.186 35.1364 26.9112 36.1283 26.9122C37.6022 26.9122 38.5517 27.555 39.52 28.5183C40.4883 29.4817 40.9478 29.2322 41.1261 31.9072C41.19 32.8645 40.6094 34.1695 40.22 35.0817C40.1109 35.3363 39.9305 35.5539 39.7005 35.7083C38.5055 36.5178 37.8167 37.2639 36.1283 37.2639C34.6083 37.2639 33.7117 37.0311 32.7394 36.0145C31.8144 35.0556 31.6655 34.4089 30.9517 32.9811Z" fill="#F7FFDE"/>
</svg>
