<svg width="60" height="60" viewBox="0 0 60 60" fill="none" xmlns="http://www.w3.org/2000/svg">
<g clip-path="url(#clip0_53_50)">
<path d="M57.3913 54.7826V58.6956C57.3913 59.4159 56.8073 59.9999 56.087 59.9999H1.3043C0.583945 60 0 59.416 0 58.6957V54.7827C0 54.0623 0.583945 53.4784 1.3043 53.4784H56.0869C56.8073 53.4783 57.3913 54.0622 57.3913 54.7826Z" fill="#A89B80"/>
<path d="M26.7391 37.8261V50.8696H3.26086V37.8261C3.26086 33.5039 6.76477 30 11.087 30H18.9131C23.2352 30 26.7391 33.5039 26.7391 37.8261Z" fill="#90B5BF"/>
<path d="M15 50.8696H3.26086V37.8261C3.26086 33.5039 6.76477 30 11.087 30H15V50.8696Z" fill="#769CA5"/>
<path d="M29.3479 60H17.6087C16.1679 60 15 58.8321 15 57.3913V40.4347C15 38.9939 16.1679 37.826 17.6087 37.826H29.3479C30.7887 37.826 31.9566 38.9939 31.9566 40.4347V57.3913C31.9566 58.8321 30.7886 60 29.3479 60Z" fill="#EFDDAB"/>
<path d="M19.2391 43.0434C19.2391 42.5032 19.6772 42.0652 20.2174 42.0652H28.0435C28.5838 42.0652 29.0218 42.5032 29.0218 43.0434C29.0218 43.5837 28.5838 44.0217 28.0435 44.0217H20.2174C19.6772 44.0217 19.2391 43.5838 19.2391 43.0434ZM28.0434 45.9783H20.2173C19.6771 45.9783 19.239 46.4163 19.239 46.9566C19.239 47.4968 19.6771 47.9348 20.2173 47.9348H28.0434C28.5837 47.9348 29.0217 47.4968 29.0217 46.9566C29.0217 46.4162 28.5838 45.9783 28.0434 45.9783ZM28.0434 53.8043H20.2173C19.6771 53.8043 19.239 54.2423 19.239 54.7826C19.239 55.3228 19.6771 55.7609 20.2173 55.7609H28.0434C28.5837 55.7609 29.0217 55.3228 29.0217 54.7826C29.0217 54.2423 28.5838 53.8043 28.0434 53.8043ZM28.0434 49.8913H22.826C22.2858 49.8913 21.8477 50.3293 21.8477 50.8696C21.8477 51.4098 22.2858 51.8479 22.826 51.8479H28.0434C28.5837 51.8479 29.0217 51.4098 29.0217 50.8696C29.0217 50.3293 28.5838 49.8913 28.0434 49.8913Z" fill="#C1B291"/>
<path d="M20.2174 20.8696C20.2174 23.751 17.8815 26.087 15 26.087C12.1185 26.087 9.78258 23.7511 9.78258 20.8696C9.78258 17.9881 12.1185 15.6522 15 15.6522C17.8815 15.6522 20.2174 17.9882 20.2174 20.8696ZM15 49.5653H8.47829V41.7392C8.47829 41.0188 7.89434 40.4349 7.17399 40.4349H3.26086V52.174C3.26086 53.6148 4.42876 54.7827 5.86958 54.7827H15C16.4408 54.7827 17.6087 53.6148 17.6087 52.174C17.6087 50.7332 16.4408 49.5653 15 49.5653Z" fill="#F4C064"/>
<path d="M15 15.6522V26.0869C12.1186 26.0869 9.78259 23.751 9.78259 20.8695C9.78259 17.9879 12.1186 15.6522 15 15.6522Z" fill="#F4AB53"/>
<path d="M56.7391 22.1739V35.2173C56.7391 35.9377 56.1552 36.5216 55.4348 36.5216H51.5218H47.6088C46.8885 36.5216 46.3045 35.9377 46.3045 35.2173V22.1739C46.3045 21.4535 46.8885 20.8696 47.6088 20.8696H50.2175C50.9379 20.8696 51.5218 21.4535 51.5218 22.1739C51.5218 21.4535 52.1058 20.8696 52.8261 20.8696H55.4348C56.1552 20.8696 56.7391 21.4535 56.7391 22.1739Z" fill="#B28D5B"/>
<path d="M54.1304 20.8696V36.5217H52.8261C52.1058 36.5217 51.5218 35.9378 51.5218 35.2174C51.5218 35.9378 50.9379 36.5217 50.2175 36.5217H47.6088C46.8885 36.5217 46.3045 35.9378 46.3045 35.2174V22.1739C46.3045 21.4535 46.8885 20.8696 47.6088 20.8696H50.2175C50.9379 20.8696 51.5218 21.4535 51.5218 22.1739C51.5218 21.4535 52.1058 20.8696 52.8261 20.8696H54.1304Z" fill="#7F5D3B"/>
<path d="M45 1.3043V14.3477C45 15.0681 44.416 15.652 43.6957 15.652H39.7827H35.8697C35.1493 15.652 34.5654 15.0681 34.5654 14.3477V1.3043C34.5654 0.583945 35.1493 0 35.8697 0H38.4784C39.1987 0 39.7827 0.583945 39.7827 1.3043C39.7827 0.583945 40.3666 0 41.087 0H43.6957C44.416 0 45 0.583945 45 1.3043Z" fill="#FF8355"/>
<path d="M42.3913 0V15.6521H39.7826H35.8695C35.1492 15.6521 34.5652 15.0682 34.5652 14.3479V1.3043C34.5652 0.583945 35.1492 0 35.8695 0H38.4783C39.1986 0 39.7826 0.583945 39.7826 1.3043C39.7826 0.583945 40.3665 0 41.0868 0H42.3913Z" fill="#E55D30"/>
<path d="M39.7826 15.6521H35.8695C35.1492 15.6521 34.5652 15.0682 34.5652 14.3479V1.3043C34.5652 0.583945 35.1492 0 35.8695 0H38.4783C39.1986 0 39.7826 0.583945 39.7826 1.3043V15.6521Z" fill="#B28D5B"/>
<path d="M37.1738 15.6521H35.8695C35.1492 15.6521 34.5652 15.0682 34.5652 14.3479V1.3043C34.5652 0.583945 35.1492 0 35.8695 0H37.1738V15.6521Z" fill="#7F5D3B"/>
<path d="M55.7376 13.8359L53.4785 15.1402C52.8546 15.5003 52.0569 15.2866 51.6968 14.6627L45.1751 3.3668C44.815 2.74289 45.0286 1.9452 45.6525 1.58508L47.9116 0.280783C48.5355 -0.0793346 49.3332 0.134298 49.6934 0.758204L56.2151 12.0543C56.5753 12.6778 56.3616 13.4756 55.7376 13.8359Z" fill="#769CA5"/>
<path d="M54.6081 14.488L53.4785 15.1401C52.8546 15.5003 52.0569 15.2866 51.6968 14.6627L45.1751 3.36679C44.815 2.74288 45.0286 1.94519 45.6525 1.58507L46.7821 0.932922L54.6081 14.488Z" fill="#5B7A7F"/>
<path d="M50.2175 36.5217H47.6087C46.8884 36.5217 46.3044 35.9378 46.3044 35.2174V22.1739C46.3044 21.4535 46.8884 20.8696 47.6087 20.8696H50.2175C50.9378 20.8696 51.5217 21.4535 51.5217 22.1739V35.2173C51.5217 35.9378 50.9378 36.5217 50.2175 36.5217Z" fill="#FFA233"/>
<path d="M48.913 36.5217H47.6087C46.8884 36.5217 46.3044 35.9378 46.3044 35.2174V22.1739C46.3044 21.4535 46.8884 20.8696 47.6087 20.8696H48.913V36.5217Z" fill="#FF7E1D"/>
<path d="M59.0217 16.6304H31.6304C31.0902 16.6304 30.6522 16.1924 30.6522 15.6521C30.6522 15.1119 31.0902 14.6739 31.6304 14.6739H59.0217C59.562 14.6739 60 15.1119 60 15.6521C60 16.1924 59.562 16.6304 59.0217 16.6304ZM59.0217 35.5434H38.1522C37.6119 35.5434 37.1739 35.9815 37.1739 36.5217C37.1739 37.0619 37.6119 37.5 38.1522 37.5H59.0217C59.562 37.5 60 37.0619 60 36.5217C60 35.9815 59.562 35.5434 59.0217 35.5434Z" fill="#A89B80"/>
<path d="M43.0434 53.4783H58.6957C59.416 53.4783 60 54.0622 60 54.7826V58.6956C60 59.4159 59.416 59.9999 58.6957 59.9999H43.0434C42.3231 59.9999 41.7391 59.4159 41.7391 58.6956V54.7826C41.7391 54.0622 42.3231 53.4783 43.0434 53.4783Z" fill="#C1B291"/>
<path d="M43.0434 49.5653H58.6957C59.416 49.5653 60 50.1492 60 50.8696V54.7826C60 55.5029 59.416 56.0869 58.6957 56.0869H43.0434C42.3231 56.0869 41.7391 55.5029 41.7391 54.7826V50.8696C41.7391 50.1492 42.3231 49.5653 43.0434 49.5653Z" fill="#DBCBA1"/>
<path d="M43.0434 45.6521H58.6957C59.416 45.6521 60 46.2361 60 46.9564V50.8694C60 51.5898 59.416 52.1737 58.6957 52.1737H43.0434C42.3231 52.1737 41.7391 51.5898 41.7391 50.8694V46.9564C41.7391 46.2361 42.3231 45.6521 43.0434 45.6521Z" fill="#EFDDAB"/>
<path d="M57.0653 45.6521V48.2609C57.0653 48.8011 56.6272 49.2391 56.087 49.2391C55.5468 49.2391 55.1087 48.8011 55.1087 48.2609V45.6521H57.0653ZM51.1957 48.2609C51.1957 48.8011 51.6338 49.2391 52.174 49.2391C52.7142 49.2391 53.1523 48.8011 53.1523 48.2609V45.6521H51.1957V48.2609ZM47.2826 48.2609C47.2826 48.8011 47.7206 49.2391 48.2609 49.2391C48.8011 49.2391 49.2392 48.8011 49.2392 48.2609V45.6521H47.2826V48.2609Z" fill="#DBCBA1"/>
</g>
<defs>
<clipPath id="clip0_53_50">
<rect width="60" height="60" fill="white"/>
</clipPath>
</defs>
</svg>
