<svg width="60" height="60" viewBox="0 0 60 60" fill="none" xmlns="http://www.w3.org/2000/svg">
<g clip-path="url(#clip0_53_82)">
<path d="M16.2947 57.0328H14.3167V46.9664C14.3167 46.8045 14.3564 46.6452 14.4323 46.5022L18.5219 38.8078V34.0867H20.4999V39.0543C20.4999 39.2162 20.4602 39.3755 20.3843 39.5184L16.2947 47.2128V57.0328Z" fill="#2F5E88"/>
<path d="M35.1944 57.0328H33.2164V47.2128L29.1267 39.5184C29.0508 39.3755 29.011 39.2162 29.011 39.0543V34.0867H30.989V38.8078L35.0787 46.5022C35.1545 46.6452 35.1944 46.8045 35.1944 46.9664V57.0328Z" fill="#2F5E88"/>
<path d="M8.26169 57.0328H6.28357V46.9664C6.28357 46.8045 6.32341 46.6452 6.39923 46.5022L10.489 38.8078V34.0867H12.467V39.0543C12.467 39.2162 12.4271 39.3755 12.3513 39.5184L8.26169 47.2128V57.0328Z" fill="#2F5E88"/>
<path d="M14.6519 0.000116348V16.6155C19.2395 16.6155 22.9595 12.8955 22.9595 8.30789C22.9596 3.71871 19.2396 0.000116348 14.6519 0.000116348Z" fill="#FF9269"/>
<path d="M14.5055 20.5702C6.49441 20.5702 0 27.0646 0 35.0756H29.0109C29.0109 27.0646 22.5166 20.5702 14.5055 20.5702Z" fill="#78E3EC"/>
<path d="M14.6519 0.000116348C17.0546 0.000116348 19.0035 3.71883 19.0035 8.30777C19.0035 12.8954 17.0545 16.6154 14.6519 16.6154C10.0628 16.6154 6.34424 12.8954 6.34424 8.30777C6.34424 3.71871 10.0629 0.000116348 14.6519 0.000116348Z" fill="#FFB082"/>
<path d="M45.4945 20.5702L56.044 35.0756H60C60 27.0647 53.5054 20.5702 45.4945 20.5702Z" fill="#25BBCC"/>
<path d="M45.6409 0.000116348V16.6155C50.2285 16.6155 53.9485 12.8955 53.9485 8.30789C53.9485 3.71871 50.2285 0.000116348 45.6409 0.000116348Z" fill="#FF9269"/>
<path d="M45.4945 20.5702C51.3205 20.5702 56.0439 27.0647 56.0439 35.0756H30.989C30.989 27.0647 37.4834 20.5702 45.4945 20.5702Z" fill="#78E3EC"/>
<path d="M45.6409 0.000116348C48.0436 0.000116348 49.9925 3.71883 49.9925 8.30777C49.9925 12.8954 48.0435 16.6154 45.6409 16.6154C41.0518 16.6154 37.3333 12.8954 37.3333 8.30777C37.3333 3.71871 41.0518 0.000116348 45.6409 0.000116348Z" fill="#FFB082"/>
<path d="M30 20.5702L40.5495 35.0756H44.5055C44.5055 27.0647 38.0109 20.5702 30 20.5702Z" fill="#FF4719"/>
<path d="M30.1464 0.000116348V16.6155C34.734 16.6155 38.454 12.8955 38.454 8.30789C38.454 3.71871 34.734 0.000116348 30.1464 0.000116348Z" fill="#FFDB8A"/>
<path d="M30 20.5702C35.826 20.5702 40.5494 27.0647 40.5494 35.0756H15.4945C15.4945 27.0647 21.989 20.5702 30 20.5702Z" fill="#FF754F"/>
<path d="M30.1464 0.000116348C32.5491 0.000116348 34.498 3.71883 34.498 8.30777C34.498 12.8954 32.549 16.6154 30.1464 16.6154C25.5573 16.6154 21.8387 12.8954 21.8387 8.30777C21.8387 3.71871 25.5575 0.000116348 30.1464 0.000116348Z" fill="#FFEAB5"/>
<path d="M30.1455 11.6919C29.0162 11.6919 27.9983 11.0039 27.6127 9.97992C27.4203 9.46875 27.6788 8.8984 28.1899 8.70598C28.7009 8.51355 29.2716 8.77195 29.4639 9.28312C29.5609 9.54082 29.8348 9.71391 30.1454 9.71391C30.4561 9.71391 30.7299 9.54082 30.8268 9.28324C31.0193 8.77195 31.5897 8.51355 32.1007 8.70598C32.6119 8.89828 32.8705 9.46875 32.6782 9.97992C32.2932 11.0038 31.2753 11.6919 30.1455 11.6919Z" fill="#E02E00"/>
<path d="M45.64 11.6919C44.5107 11.6919 43.4928 11.0039 43.1072 9.97992C42.9148 9.46875 43.1733 8.8984 43.6844 8.70598C44.1957 8.51355 44.7659 8.77195 44.9584 9.28312C45.0554 9.54082 45.3293 9.71391 45.6399 9.71391C45.9506 9.71391 46.2244 9.54082 46.3213 9.28324C46.5136 8.77195 47.0841 8.51355 47.5952 8.70598C48.1065 8.89828 48.365 9.46875 48.1727 9.97992C47.7876 11.0038 46.7697 11.6919 45.64 11.6919Z" fill="#E02E00"/>
<path d="M7.39378 59.9999C8.4862 59.9999 9.37179 59.1143 9.37179 58.0219C9.37179 56.9295 8.4862 56.0439 7.39378 56.0439C6.30136 56.0439 5.41577 56.9295 5.41577 58.0219C5.41577 59.1143 6.30136 59.9999 7.39378 59.9999Z" fill="#78E3EC"/>
<path d="M15.3059 59.9999C16.3983 59.9999 17.2839 59.1143 17.2839 58.0219C17.2839 56.9295 16.3983 56.0439 15.3059 56.0439C14.2135 56.0439 13.3279 56.9295 13.3279 58.0219C13.3279 59.1143 14.2135 59.9999 15.3059 59.9999Z" fill="#78E3EC"/>
<path d="M34.2052 59.9999C35.2976 59.9999 36.1832 59.1143 36.1832 58.0219C36.1832 56.9295 35.2976 56.0439 34.2052 56.0439C33.1128 56.0439 32.2272 56.9295 32.2272 58.0219C32.2272 59.1143 33.1128 59.9999 34.2052 59.9999Z" fill="#78E3EC"/>
<path d="M54.5844 47.9554H38.1614C37.6151 47.9554 37.1724 47.5125 37.1724 46.9663C37.1724 46.4201 37.6151 45.9772 38.1614 45.9772H54.5844C55.1308 45.9772 55.5735 46.4201 55.5735 46.9663C55.5735 47.5125 55.1306 47.9554 54.5844 47.9554Z" fill="#88ACB5"/>
<path d="M54.5844 51.9114H38.1614C37.6151 51.9114 37.1724 51.4685 37.1724 50.9223C37.1724 50.3761 37.6151 49.9332 38.1614 49.9332H54.5844C55.1308 49.9332 55.5735 50.3761 55.5735 50.9223C55.5735 51.4685 55.1306 51.9114 54.5844 51.9114Z" fill="#88ACB5"/>
<path d="M54.5844 55.8675H46.3729C45.8265 55.8675 45.3838 55.4246 45.3838 54.8784C45.3838 54.3322 45.8265 53.8894 46.3729 53.8894H54.5844C55.1307 53.8894 55.5735 54.3322 55.5735 54.8784C55.5735 55.4246 55.1306 55.8675 54.5844 55.8675Z" fill="#88ACB5"/>
<path d="M14.36 11.6919C13.2304 11.6919 12.2125 11.0038 11.8272 9.97969C11.6348 9.4684 11.8934 8.89805 12.4047 8.70574C12.9155 8.51356 13.4863 8.77184 13.6785 9.28301C13.7754 9.5407 14.0493 9.71367 14.36 9.71367C14.6705 9.71367 14.9445 9.54059 15.0414 9.28289C15.2339 8.77148 15.8042 8.51344 16.3155 8.70574C16.8266 8.89816 17.085 9.46863 16.8926 9.97969C16.5072 11.0039 15.4893 11.6919 14.36 11.6919Z" fill="#E02E00"/>
</g>
<defs>
<clipPath id="clip0_53_82">
<rect width="60" height="60" fill="white"/>
</clipPath>
</defs>
</svg>
